<svg width="3351" height="445" viewBox="0 0 3351 445" fill="none" xmlns="http://www.w3.org/2000/svg">
<path d="M148.384 317.171C143.988 320.22 138.824 321.842 133.544 321.83C128.264 321.819 123.106 320.174 118.724 317.105C114.341 314.036 110.93 309.68 108.923 304.589C106.917 299.498 106.404 293.9 107.45 288.505C108.497 283.111 111.055 278.161 114.802 274.282C118.548 270.404 123.315 267.772 128.497 266.719C133.68 265.666 139.045 266.24 143.914 268.367C148.784 270.495 152.938 274.081 155.852 278.672C159.748 284.812 161.151 292.314 159.751 299.53C158.351 306.747 154.264 313.091 148.384 317.171Z" fill="white"/>
<path d="M361.01 170.151C356.303 173.202 350.772 174.828 345.116 174.821C339.459 174.816 333.932 173.179 329.232 170.118C324.533 167.057 320.871 162.71 318.712 157.626C316.553 152.542 315.993 146.949 317.102 141.554C318.212 136.16 320.941 131.208 324.944 127.322C328.948 123.437 334.047 120.793 339.595 119.725C345.144 118.657 350.894 119.214 356.117 121.325C361.341 123.435 365.804 127.004 368.942 131.581C373.13 137.724 374.646 145.23 373.16 152.458C371.674 159.686 367.305 166.047 361.01 170.151Z" fill="white"/>
<path d="M138.099 227.308C137.448 211.28 140.246 195.305 146.281 180.591C152.317 165.876 161.433 152.808 172.938 142.375C184.444 131.941 198.038 124.417 212.694 120.367C227.35 116.319 242.683 115.853 257.533 119.006C265.725 120.721 273.682 123.521 281.213 127.342H281.627C286.971 130.077 293.018 130.868 298.83 129.595C304.641 128.322 309.896 125.056 313.778 120.302C317.662 115.548 319.957 109.57 320.31 103.295C320.664 97.0192 319.054 90.796 315.732 85.5864C313.116 81.5292 309.579 78.2348 305.445 76.0066L304.686 75.4947L303.65 75.0559C292.453 69.4593 280.652 65.3335 268.51 62.7708C228.442 54.2832 186.833 62.9847 152.816 86.9648C118.8 110.945 95.1578 148.244 87.0805 190.671C84.6531 203.545 83.6797 216.678 84.1809 229.795C84.1844 235.389 85.7453 240.858 88.6683 245.517C91.9828 250.773 96.8444 254.721 102.496 256.747C108.149 258.772 114.275 258.763 119.921 256.719C125.567 254.675 130.418 250.712 133.718 245.446C137.018 240.18 138.582 233.907 138.168 227.601C138.209 227.433 138.209 227.257 138.168 227.089" fill="white"/>
<path d="M339.058 217.464C339.422 225.803 338.803 234.157 337.213 242.337C332.017 269.159 316.881 292.741 295.113 307.928C273.344 323.115 246.713 328.673 221.038 323.387C212.957 321.655 205.108 318.894 197.667 315.168H197.257C190.986 312.442 183.958 312.315 177.601 314.813C171.244 317.312 166.035 322.248 163.033 328.618C160.031 334.989 159.461 342.317 161.438 349.111C163.416 355.906 167.793 361.658 173.68 365.199L174.364 365.699L175.389 366.199C196.312 376.523 219.21 381.727 242.344 381.415C265.477 381.103 288.239 375.284 308.901 364.4C329.564 353.515 347.585 337.851 361.596 318.596C375.607 299.341 385.24 277.002 389.765 253.272C392.196 240.694 393.16 227.854 392.635 215.034C392.635 215.034 392.635 215.034 392.635 214.677C392.639 209.23 391.092 203.906 388.193 199.381C384.946 194.193 380.142 190.282 374.536 188.264C368.93 186.245 362.841 186.233 357.229 188.231C351.616 190.229 346.798 194.122 343.533 199.298C340.268 204.474 338.742 210.638 339.195 216.821C339.155 216.985 339.155 217.157 339.195 217.321" fill="white"/>
<path d="M133.394 444.135L130.36 443.215C91.0947 427.951 57.4537 400.474 34.1363 364.624C10.8188 328.773 -1.01033 286.339 0.301272 243.249V242.045C0.383877 240.805 0.568438 239.573 0.852963 238.363C1.50387 235.162 2.76514 232.126 4.56412 229.428C6.36309 226.73 8.66411 224.424 11.3348 222.643C16.8552 219.005 23.5356 217.711 29.9679 219.031C36.4002 220.353 42.0816 224.186 45.8147 229.724C47.862 232.851 49.2048 236.407 49.7455 240.133V243.886C48.619 276.423 57.4081 308.51 74.8871 335.673C92.3663 362.836 117.665 383.722 147.255 395.418L150.22 396.764C154.13 398.675 157.466 401.636 159.875 405.331C161.699 408.116 162.969 411.246 163.611 414.537C164.252 417.829 164.252 421.218 163.611 424.51C162.97 427.801 161.701 430.93 159.875 433.715C158.051 436.5 155.707 438.887 152.979 440.736C150.283 442.593 147.255 443.882 144.07 444.526C140.886 445.17 137.608 445.158 134.428 444.489C134.428 444.489 133.739 444.489 133.394 444.489" fill="white"/>
<path d="M454.767 229.715C451.564 229.058 448.518 227.747 445.807 225.86C443.096 223.973 440.774 221.545 438.975 218.718C436.951 215.534 435.626 211.928 435.096 208.153V203.913C436.237 170.887 427.414 138.314 409.857 110.742C392.299 83.1695 366.884 61.9727 337.158 50.11L334.249 48.8163C330.317 46.8498 326.968 43.8211 324.553 40.0481C321.816 35.8091 320.357 30.8217 320.358 25.7197C320.36 20.6178 321.824 15.6315 324.563 11.3947C327.302 7.15796 331.194 3.86189 335.743 1.92541C340.292 -0.0110825 345.293 -0.500557 350.111 0.519187H351.149C352.172 0.71358 353.172 1.027 354.128 1.45351C393.483 17.0645 427.162 45.0314 450.467 81.4532C473.772 117.876 485.541 160.937 484.134 204.632V206.069C484.114 207.307 483.951 208.537 483.649 209.734C483.039 213.058 481.793 216.22 479.985 219.035C478.177 221.849 475.842 224.259 473.121 226.121C470.4 228.005 467.347 229.311 464.137 229.965C460.927 230.619 457.625 230.606 454.42 229.93" fill="white"/>
<path d="M776.481 397.154C751.762 397.154 729.438 392.832 709.508 384.186C689.732 375.386 673.433 362.881 660.61 346.671C647.941 330.306 639.908 310.854 636.509 288.314L702.324 278.587C706.959 297.731 716.537 312.475 731.06 322.818C745.582 333.162 762.113 338.334 780.653 338.334C791.004 338.334 801.046 336.713 810.779 333.471C820.512 330.229 828.469 325.443 834.649 319.113C840.983 312.783 844.15 304.987 844.15 295.724C844.15 292.328 843.61 289.085 842.528 285.998C841.601 282.756 839.979 279.745 837.662 276.966C835.344 274.187 832.022 271.563 827.697 269.093C823.525 266.623 818.195 264.384 811.706 262.377L725.034 236.904C718.546 235.051 710.975 232.427 702.324 229.03C693.826 225.634 685.561 220.771 677.527 214.441C669.493 208.111 662.773 199.774 657.366 189.431C652.113 178.932 649.486 165.733 649.486 149.831C649.486 127.445 655.125 108.842 666.404 94.0212C677.682 79.2004 692.745 68.1619 711.593 60.9059C730.442 53.6498 751.299 50.099 774.164 50.2534C797.184 50.5621 817.732 54.4989 835.808 62.0637C853.884 69.6286 869.024 80.667 881.229 95.1791C893.434 109.537 902.24 127.137 907.648 147.978L839.515 159.557C837.043 148.75 832.486 139.642 825.843 132.231C819.199 124.821 811.243 119.186 801.973 115.326C792.858 111.467 783.279 109.382 773.237 109.074C763.349 108.765 754.002 110.154 745.196 113.242C736.544 116.175 729.438 120.498 723.876 126.21C718.468 131.923 715.765 138.715 715.765 146.589C715.765 153.845 718.005 159.789 722.485 164.42C726.966 168.897 732.605 172.526 739.403 175.304C746.2 178.083 753.153 180.399 760.259 182.252L818.195 197.999C826.847 200.315 836.426 203.402 846.931 207.262C857.437 210.967 867.479 216.216 877.058 223.009C886.791 229.648 894.747 238.448 900.927 249.409C907.262 260.37 910.429 274.265 910.429 291.092C910.429 309.001 906.644 324.671 899.073 338.102C891.658 351.379 881.615 362.418 868.947 371.218C856.278 379.863 841.91 386.347 825.843 390.67C809.93 394.993 793.476 397.154 776.481 397.154Z" fill="white"/>
<path d="M942.826 390.207V56.7375H1160.66V115.558H1005.86V186.883H1132.85V245.704H1005.86V331.387H1160.66V390.207H942.826Z" fill="white"/>
<path d="M1329.12 397.154C1295.75 397.154 1266.93 389.898 1242.68 375.386C1218.58 360.874 1199.96 340.573 1186.83 314.482C1173.85 288.391 1167.36 258.054 1167.36 223.472C1167.36 188.89 1173.85 158.554 1186.83 132.463C1199.96 106.372 1218.58 86.0705 1242.68 71.5584C1266.93 57.0463 1295.75 49.7902 1329.12 49.7902C1367.43 49.7902 1399.57 59.2848 1425.52 78.274C1451.63 97.2633 1470.02 122.968 1480.68 155.389L1417.18 172.989C1411 152.764 1400.57 137.094 1385.9 125.979C1371.22 114.709 1352.29 109.074 1329.12 109.074C1307.95 109.074 1290.26 113.782 1276.05 123.2C1261.99 132.617 1251.41 145.894 1244.3 163.031C1237.19 180.168 1233.64 200.315 1233.64 223.472C1233.64 246.63 1237.19 266.777 1244.3 283.914C1251.41 301.05 1261.99 314.327 1276.05 323.745C1290.26 333.162 1307.95 337.871 1329.12 337.871C1352.29 337.871 1371.22 332.236 1385.9 320.966C1400.57 309.696 1411 294.026 1417.18 273.956L1480.68 291.556C1470.02 323.976 1451.63 349.681 1425.52 368.67C1399.57 387.66 1367.43 397.154 1329.12 397.154Z" fill="white"/>
<path d="M1656.38 397.154C1623.01 397.154 1594.2 389.898 1569.94 375.386C1545.84 360.874 1527.23 340.573 1514.09 314.482C1501.12 288.391 1494.63 258.054 1494.63 223.472C1494.63 188.89 1501.12 158.554 1514.09 132.463C1527.23 106.372 1545.84 86.0705 1569.94 71.5584C1594.2 57.0463 1623.01 49.7902 1656.38 49.7902C1689.75 49.7902 1718.49 57.0463 1742.59 71.5584C1766.85 86.0705 1785.46 106.372 1798.44 132.463C1811.57 158.554 1818.14 188.89 1818.14 223.472C1818.14 258.054 1811.57 288.391 1798.44 314.482C1785.46 340.573 1766.85 360.874 1742.59 375.386C1718.49 389.898 1689.75 397.154 1656.38 397.154ZM1656.38 337.871C1677.55 338.18 1695.16 333.625 1709.22 324.208C1723.28 314.79 1733.79 301.436 1740.74 284.145C1747.84 266.854 1751.4 246.63 1751.4 223.472C1751.4 200.315 1747.84 180.245 1740.74 163.262C1733.79 146.28 1723.28 133.08 1709.22 123.663C1695.16 114.246 1677.55 109.382 1656.38 109.074C1635.22 108.765 1617.61 113.319 1603.55 122.737C1589.49 132.154 1578.9 145.508 1571.8 162.799C1564.85 180.09 1561.37 200.315 1561.37 223.472C1561.37 246.63 1564.85 266.7 1571.8 283.682C1578.9 300.664 1589.49 313.864 1603.55 323.282C1617.61 332.699 1635.22 337.562 1656.38 337.871Z" fill="white"/>
<path d="M1845.86 390.207V56.7375H1909.82L2054.89 279.05V56.7375H2118.86V390.207H2054.89L1909.82 167.894V390.207H1845.86Z" fill="white"/>
<path d="M2191.49 140.105V56.7375H2254.52L2234.4 140.105H2191.49Z" fill="white"/>
<path d="M2307.43 389.744V335.092L2447.4 210.967C2457.9 201.704 2465.32 192.981 2469.65 184.799C2473.97 176.617 2476.13 168.975 2476.13 161.873C2476.13 151.684 2474.05 142.652 2469.88 134.779C2465.71 126.751 2459.83 120.498 2452.26 116.021C2444.69 111.389 2435.81 109.074 2425.61 109.074C2414.95 109.074 2405.53 111.544 2397.34 116.484C2389.31 121.27 2383.05 127.677 2378.57 135.705C2374.09 143.578 2372 152.147 2372.31 161.41H2307.43C2307.43 138.561 2312.45 118.8 2322.49 102.126C2332.53 85.4529 2346.51 72.5618 2364.43 63.4532C2382.36 54.3445 2403.21 49.7902 2427 49.7902C2448.79 49.7902 2468.25 54.5761 2485.4 64.1479C2502.71 73.5653 2516.3 86.7652 2526.19 103.747C2536.08 120.73 2541.02 140.414 2541.02 162.799C2541.02 179.318 2538.7 193.059 2534.07 204.02C2529.43 214.827 2522.56 224.862 2513.44 234.125C2504.33 243.233 2493.13 253.577 2479.84 265.156L2389.46 344.355L2384.36 330.46H2541.02V389.744H2307.43Z" fill="white"/>
<path d="M2701.63 397.154C2676.91 397.154 2655.28 391.982 2636.74 381.639C2618.2 371.295 2603.75 356.86 2593.4 338.334C2583.05 319.808 2577.88 298.194 2577.88 273.493V173.452C2577.88 148.75 2583.05 127.137 2593.4 108.611C2603.75 90.0844 2618.2 75.6495 2636.74 65.3058C2655.28 54.9621 2676.91 49.7902 2701.63 49.7902C2726.35 49.7902 2747.98 54.9621 2766.52 65.3058C2785.05 75.6495 2799.5 90.0844 2809.85 108.611C2820.2 127.137 2825.38 148.75 2825.38 173.452V273.493C2825.38 298.194 2820.2 319.808 2809.85 338.334C2799.5 356.86 2785.05 371.295 2766.52 381.639C2747.98 391.982 2726.35 397.154 2701.63 397.154ZM2701.63 337.408C2712.75 337.408 2722.79 334.783 2731.75 329.534C2740.71 324.285 2747.82 317.183 2753.07 308.229C2758.33 299.275 2760.95 289.24 2760.95 278.124V168.357C2760.95 157.241 2758.33 147.207 2753.07 138.252C2747.82 129.298 2740.71 122.196 2731.75 116.947C2722.79 111.698 2712.75 109.074 2701.63 109.074C2690.5 109.074 2680.46 111.698 2671.5 116.947C2662.54 122.196 2655.43 129.298 2650.18 138.252C2644.93 147.207 2642.3 157.241 2642.3 168.357V278.124C2642.3 289.24 2644.93 299.275 2650.18 308.229C2655.43 317.183 2662.54 324.285 2671.5 329.534C2680.46 334.783 2690.5 337.408 2701.63 337.408Z" fill="white"/>
<path d="M2862.38 389.744V335.092L3002.35 210.967C3012.86 201.704 3020.27 192.981 3024.6 184.799C3028.92 176.617 3031.09 168.975 3031.09 161.873C3031.09 151.684 3029 142.652 3024.83 134.779C3020.66 126.751 3014.79 120.498 3007.22 116.021C2999.65 111.389 2990.76 109.074 2980.57 109.074C2969.91 109.074 2960.48 111.544 2952.29 116.484C2944.26 121.27 2938 127.677 2933.52 135.705C2929.04 143.578 2926.96 152.147 2927.26 161.41H2862.38C2862.38 138.561 2867.4 118.8 2877.44 102.126C2887.48 85.4529 2901.46 72.5618 2919.39 63.4532C2937.31 54.3445 2958.16 49.7902 2981.96 49.7902C3003.74 49.7902 3023.21 54.5761 3040.36 64.1479C3057.66 73.5653 3071.25 86.7652 3081.14 103.747C3091.03 120.73 3095.97 140.414 3095.97 162.799C3095.97 179.318 3093.66 193.059 3089.02 204.02C3084.39 214.827 3077.51 224.862 3068.4 234.125C3059.28 243.233 3048.08 253.577 3034.79 265.156L2944.41 344.355L2939.32 330.46H3095.97V389.744H2862.38Z" fill="white"/>
<path d="M3232.01 397.154C3215.17 397.154 3199.34 393.681 3184.51 386.733C3169.83 379.786 3157.16 370.137 3146.5 357.786C3135.84 345.436 3128.19 331.078 3123.56 314.713L3184.28 298.503C3186.28 306.376 3189.84 313.169 3194.94 318.882C3200.19 324.594 3206.21 329.071 3213.01 332.313C3219.96 335.401 3227.07 336.945 3234.33 336.945C3243.91 336.945 3252.64 334.629 3260.52 329.997C3268.55 325.366 3274.89 319.113 3279.52 311.24C3284.31 303.366 3286.71 294.643 3286.71 285.071C3286.71 275.5 3284.31 266.777 3279.52 258.903C3274.89 251.03 3268.55 244.777 3260.52 240.146C3252.64 235.514 3243.91 233.198 3234.33 233.198C3222.59 233.198 3213.01 235.205 3205.6 239.219C3198.18 243.079 3192.62 246.784 3188.91 250.335L3135.61 234.125L3145.81 56.7375H3327.96V115.558H3180.57L3202.81 94.716L3195.86 209.115L3185.2 196.146C3193.54 189.353 3203.05 184.413 3213.71 181.325C3224.37 178.238 3234.33 176.694 3243.6 176.694C3264.61 176.694 3283.07 181.403 3298.99 190.82C3315.06 200.083 3327.57 212.897 3336.53 229.262C3345.65 245.472 3350.2 264.075 3350.2 285.071C3350.2 306.068 3344.72 325.057 3333.75 342.039C3322.78 358.867 3308.33 372.298 3290.41 382.333C3272.49 392.214 3253.03 397.154 3232.01 397.154Z" fill="white"/>
</svg>
