<svg width="48" height="48" viewBox="0 0 48 48" fill="none" xmlns="http://www.w3.org/2000/svg">
<rect x="0.5" y="0.5" width="47" height="47" rx="2.5" stroke="white" stroke-opacity="0.5"/>
<path fill-rule="evenodd" clip-rule="evenodd" d="M36.3805 17.0835C36.3805 17.0834 36.3805 17.0833 36.3806 17.0833C36.5683 16.4589 36.3805 16 35.4872 16H32.5334C31.7823 16 31.4363 16.3964 31.2485 16.8337C31.2485 16.8337 29.7463 20.4869 27.6182 22.86C26.9298 23.5469 26.6169 23.7653 26.2413 23.7653C26.0536 23.7653 25.7818 23.5469 25.7818 22.9225V17.0834C25.7818 16.3339 25.5639 16 24.9379 16H20.2962C19.8269 16 19.5446 16.3478 19.5446 16.6775C19.5446 17.388 20.6084 17.5518 20.7181 19.5501V23.8905C20.7181 24.8421 20.546 25.0147 20.1704 25.0147C19.1691 25.0147 16.7334 21.3448 15.2886 17.1459C15.0054 16.3297 14.7215 16 13.9666 16H11.0127C10.1688 16 10 16.3964 10 16.8337C10 17.6143 11.0016 21.4863 14.6628 26.6072C17.1039 30.104 20.5426 32 23.6719 32C25.5497 32 25.7818 31.5789 25.7818 30.8537V28.2105C25.7818 27.3684 25.9597 27.2004 26.554 27.2004C26.9925 27.2004 27.7434 27.4189 29.496 29.1051C31.4987 31.1032 31.8287 32 32.9554 32H35.9092C36.7531 32 37.1751 31.5789 36.9316 30.748C36.6653 29.9198 35.7092 28.7185 34.4403 27.2941C33.7518 26.4821 32.7191 25.6078 32.4064 25.1707C31.9682 24.6086 32.0933 24.3589 32.4064 23.8596C32.4064 23.8596 36.0048 18.8012 36.3805 17.0837C36.3805 17.0836 36.3805 17.0835 36.3805 17.0835Z" fill="white"/>
</svg>
